<svg width="16" height="16" viewBox="0 0 16 16" fill="none" xmlns="http://www.w3.org/2000/svg">
<g clip-path="url(#clip0_310_5409)">
<path d="M0.255736 7.3785L6.0339 1.6002C6.19884 1.43526 6.41868 1.34473 6.65308 1.34473C6.88775 1.34473 7.10745 1.43539 7.2724 1.6002L7.79701 2.12495C7.96182 2.28963 8.05262 2.5096 8.05262 2.74413C8.05262 2.97853 7.96182 3.20591 7.79701 3.3706L4.42611 6.74891H15.1356C15.6185 6.74891 16 7.12692 16 7.60991V8.35176C16 8.83475 15.6185 9.25087 15.1356 9.25087H4.38787L7.79688 12.648C7.96169 12.813 8.05249 13.027 8.05249 13.2615C8.05249 13.4958 7.96169 13.7129 7.79688 13.8777L7.27227 14.4007C7.10732 14.5657 6.88762 14.6556 6.65295 14.6556C6.41855 14.6556 6.19871 14.5645 6.03377 14.3996L0.255606 8.62141C0.0902739 8.45595 -0.000652313 8.23508 -1.90735e-06 8.00028C-0.000520706 7.76471 0.0902739 7.5437 0.255736 7.3785Z" fill="#000A2D"/>
</g>
<defs>
<clipPath id="clip0_310_5409">
<rect width="16" height="16" fill="white" transform="matrix(-1 0 0 1 16 0)"/>
</clipPath>
</defs>
</svg>
