<svg width="100" height="100" viewBox="0 0 100 100" fill="none" xmlns="http://www.w3.org/2000/svg">
<circle cx="50" cy="50" r="50" fill="white"/>
<circle cx="50.5" cy="50.5" r="39" stroke="#EEEEEE"/>
<g clip-path="url(#clip0_68_10)">
<path d="M72.5602 50C72.5602 49.7132 72.4507 49.4265 72.2322 49.2079L65.3525 42.3282C64.9149 41.8906 64.2053 41.8906 63.7679 42.3282C63.3304 42.7657 63.3304 43.4751 63.7679 43.9128L69.8554 50L63.7681 56.0872C63.3306 56.5248 63.3306 57.2342 63.7681 57.6716C64.2055 58.1094 64.9151 58.1094 65.3527 57.6716L72.2324 50.792C72.451 50.5733 72.5602 50.2866 72.5602 50Z" fill="#000A2D"/>
</g>
<g clip-path="url(#clip1_68_10)">
<path d="M33.4398 50C33.4398 49.7132 33.5493 49.4265 33.7678 49.2079L40.6475 42.3282C41.0851 41.8906 41.7947 41.8906 42.2321 42.3282C42.6696 42.7657 42.6696 43.4751 42.2321 43.9128L36.1446 50L42.2319 56.0872C42.6694 56.5248 42.6694 57.2342 42.2319 57.6716C41.7945 58.1094 41.0849 58.1094 40.6473 57.6716L33.7676 50.792C33.549 50.5733 33.4398 50.2866 33.4398 50Z" fill="#000A2D"/>
</g>
<defs>
<clipPath id="clip0_68_10">
<rect width="16" height="16" fill="white" transform="matrix(-4.37114e-08 1 1 4.37114e-08 60 42)"/>
</clipPath>
<clipPath id="clip1_68_10">
<rect width="16" height="16" fill="white" transform="translate(46 42) rotate(90)"/>
</clipPath>
</defs>
</svg>
