<svg width="35" height="35" viewBox="0 0 35 35" fill="none" xmlns="http://www.w3.org/2000/svg">
<path d="M30.2431 13.0773H21.8856C21.0053 13.0773 20.353 12.2712 20.528 11.4068C21.0689 8.79243 21.5727 3.92956 18.1947 2.85304C16.9962 2.46592 15.7765 3.42046 15.7765 4.68259L14.753 10.5106C14.5833 11.4864 14.0795 12.3773 13.3265 13.0243L8.90904 16.8477C8.90374 16.8583 8.90374 16.8636 8.89844 16.8743V28.647C8.89844 28.6576 8.90374 28.6682 8.91435 28.6788L12.0219 30.4553C12.9075 30.9591 13.9045 31.2243 14.9227 31.2243H28.175C29.4424 31.2243 30.5242 30.3015 30.7204 29.05L32.778 16.0576C33.0378 14.4932 31.8287 13.0773 30.2431 13.0773Z" fill="white"/>
<path d="M28.1854 31.8713H14.9279C13.7983 31.8713 12.6847 31.5744 11.7089 31.0122L8.60136 29.2357C8.39984 29.1191 8.26196 28.8751 8.26196 28.6471V16.8744C8.26196 16.7789 8.28317 16.6834 8.3256 16.5933C8.36272 16.5138 8.43166 16.4183 8.4953 16.36L12.9127 12.5365C13.5491 11.985 13.9786 11.2266 14.1271 10.3994L15.14 4.62436C15.1612 3.8289 15.5536 3.07587 16.2006 2.5986C16.8476 2.12663 17.6483 1.99405 18.4014 2.23799C21.2332 3.13951 22.2142 6.4433 21.1642 11.5395C21.1165 11.7622 21.1748 11.9903 21.3127 12.16C21.4559 12.335 21.6627 12.4304 21.8854 12.4304H30.243C31.187 12.4304 32.0832 12.8441 32.693 13.56C33.3082 14.2759 33.5733 15.2251 33.4248 16.1584L31.3673 29.1509C31.118 30.7259 29.7817 31.8713 28.1854 31.8713ZM9.5453 28.2918L12.3453 29.8933C13.1301 30.3441 14.0211 30.5774 14.9279 30.5774H28.1801C29.14 30.5774 29.9408 29.8933 30.0892 28.9441L32.1468 15.9516C32.237 15.3948 32.0779 14.8221 31.7067 14.3925C31.3408 13.963 30.8051 13.7137 30.2377 13.7137H21.8854C21.2703 13.7137 20.6976 13.4433 20.3104 12.966C19.9233 12.4888 19.7695 11.8736 19.8968 11.2691C20.4165 8.74481 20.862 4.36981 17.9983 3.45769C17.643 3.34632 17.2612 3.40466 16.9536 3.63269C16.6195 3.87663 16.4233 4.26375 16.4233 4.67208C16.4233 4.7092 16.418 4.74633 16.4127 4.78345L15.3892 10.6115C15.193 11.7304 14.6097 12.7592 13.7506 13.5016L9.5453 17.1501V28.2918Z" fill="#000A2D"/>
<path d="M9.4552 32.2319H3.75975C2.88475 32.2319 2.17944 31.5213 2.17944 30.6516V13.6448C2.17944 12.7698 2.89005 12.0645 3.75975 12.0645H9.4552C10.3302 12.0645 11.0355 12.7751 11.0355 13.6448V30.6516C11.0355 31.5266 10.3302 32.2319 9.4552 32.2319Z" fill="#DBEAF2"/>
<path d="M9.1158 32.8789H4.09914C2.68323 32.8789 1.53247 31.7282 1.53247 30.3122V13.9895C1.53247 12.5736 2.68323 11.4229 4.09914 11.4229H9.1105C10.5264 11.4229 11.6772 12.5736 11.6772 13.9895V30.3122C11.6825 31.7282 10.5317 32.8789 9.1158 32.8789ZM4.09914 12.7115C3.39383 12.7115 2.82111 13.2842 2.82111 13.9895V30.3122C2.82111 31.0175 3.39383 31.5903 4.09914 31.5903H9.1105C9.8158 31.5903 10.3885 31.0175 10.3885 30.3122V13.9895C10.3885 13.2842 9.8158 12.7115 9.1105 12.7115H4.09914Z" fill="#000A2D"/>
<path d="M6.60749 30.1478C7.697 30.1478 8.58022 29.2646 8.58022 28.1751C8.58022 27.0856 7.697 26.2024 6.60749 26.2024C5.51799 26.2024 4.63477 27.0856 4.63477 28.1751C4.63477 29.2646 5.51799 30.1478 6.60749 30.1478Z" fill="white"/>
<path d="M6.60749 30.7948C5.16507 30.7948 3.98779 29.6228 3.98779 28.1751C3.98779 26.7274 5.15976 25.5554 6.60749 25.5554C8.04991 25.5554 9.22719 26.7274 9.22719 28.1751C9.22719 29.6228 8.04991 30.7948 6.60749 30.7948ZM6.60749 26.8494C5.87567 26.8494 5.28173 27.4433 5.28173 28.1751C5.28173 28.9069 5.87567 29.5009 6.60749 29.5009C7.33931 29.5009 7.93325 28.9069 7.93325 28.1751C7.93325 27.4433 7.33931 26.8494 6.60749 26.8494Z" fill="#000A2D"/>
</svg>
