<svg width="30" height="30" viewBox="0 0 30 30" fill="none" xmlns="http://www.w3.org/2000/svg">
<g clip-path="url(#clip0_241_584)">
<path d="M26.5262 9.25415L18.6898 8.52735L15.5769 1.29903C15.3589 0.7929 14.6413 0.7929 14.4234 1.29903L11.3106 8.52729L3.47416 9.25415C2.92542 9.30501 2.7037 9.98751 3.11767 10.3512L9.03026 15.5453L7.29992 23.2228C7.17875 23.7604 7.75936 24.1822 8.23315 23.9009L15.0002 19.8827L21.7672 23.9009C22.241 24.1822 22.8215 23.7604 22.7004 23.2228L20.97 15.5453L26.8826 10.3512C27.2966 9.98751 27.0748 9.30501 26.5262 9.25415Z" fill="#3267FF"/>
<path d="M6.98904 1.05039C7.38854 1.60527 8.51612 3.98829 9.16076 5.37708C9.26213 5.5954 8.98821 5.79263 8.8133 5.62721C7.70078 4.57534 5.79853 2.75002 5.39904 2.19508C5.08292 1.75604 5.18259 1.14385 5.6217 0.827733C6.06074 0.511619 6.67293 0.611346 6.98904 1.05039Z" fill="#3267FF"/>
<path d="M23.011 1.05039C22.6115 1.60527 21.4839 3.98829 20.8393 5.37708C20.7379 5.5954 21.0118 5.79263 21.1867 5.62721C22.2993 4.57534 24.2014 2.74996 24.601 2.19508C24.9171 1.75604 24.8174 1.14385 24.3783 0.827733C23.9393 0.511619 23.3271 0.611346 23.011 1.05039Z" fill="#3267FF"/>
<path d="M29.3242 17.3223C28.6741 17.1103 26.0611 16.7601 24.5422 16.5679C24.3034 16.5377 24.1988 16.8586 24.4094 16.975C25.7496 17.7153 28.0666 18.973 28.7166 19.185C29.231 19.3527 29.7839 19.0718 29.9517 18.5574C30.1194 18.043 29.8385 17.4901 29.3242 17.3223Z" fill="#3267FF"/>
<path d="M0.676088 17.3223C1.32613 17.1103 3.93912 16.7601 5.45805 16.5679C5.69682 16.5377 5.80147 16.8586 5.59082 16.975C4.25061 17.7153 1.93363 18.973 1.28359 19.185C0.769252 19.3527 0.216302 19.0718 0.0485477 18.5574C-0.119206 18.043 0.161751 17.4901 0.676088 17.3223Z" fill="#3267FF"/>
<path d="M14.0503 28.3779C14.0503 27.6942 14.5275 25.1014 14.8158 23.5977C14.8611 23.3613 15.1987 23.3613 15.244 23.5977C15.5322 25.1014 16.0095 27.6942 16.0095 28.3779C16.0095 28.9189 15.5709 29.3575 15.0299 29.3575C14.4889 29.3575 14.0503 28.9189 14.0503 28.3779Z" fill="#3267FF"/>
<path d="M16.7088 3.92755L15.5768 1.29903C15.3589 0.7929 14.6413 0.7929 14.4234 1.29903L11.3105 8.52729L3.47416 9.25415C2.92542 9.30501 2.7037 9.98751 3.11767 10.3512L9.03026 15.5453L7.29992 23.2228C7.17875 23.7604 7.75936 24.1822 8.23315 23.9009L9.13379 23.3661C10.6103 13.8082 14.7612 6.79209 16.7088 3.92755Z" fill="#3267FF"/>
</g>
<defs>
<clipPath id="clip0_241_584">
<rect width="30" height="30" fill="white"/>
</clipPath>
</defs>
</svg>
