<svg width="94" height="68" viewBox="0 0 94 68" fill="none" xmlns="http://www.w3.org/2000/svg">
<path d="M76.3751 44.125C78.4375 49.3124 81.6874 54.4375 86.0312 59.375C87.4062 60.9375 87.5937 63.1874 86.4688 64.9374C85.5937 66.3124 84.1563 67.0624 82.5938 67.0624C82.1562 67.0624 81.7187 67.0313 81.2812 66.8749C72.0938 64.1874 50.6249 54.6562 50.0312 24.0936C49.8126 12.3125 58.4374 2.18754 69.6562 1.03129C75.875 0.406255 82.0624 2.43738 86.6562 6.56241C91.2499 10.7187 93.875 16.6563 93.875 22.8437C93.875 33.1562 86.5624 42.1875 76.3751 44.125Z" fill="#F1F8FF"/>
<path d="M19.7812 1.03129C25.9688 0.406255 32.1563 2.43738 36.7499 6.56241C41.3438 10.7187 43.9688 16.6563 43.9688 22.8437C43.9688 33.1562 36.6563 42.1875 26.4687 44.125C28.5313 49.3124 31.7812 54.4374 36.1251 59.375C37.5001 60.9375 37.6876 63.1874 36.5624 64.9374C35.6875 66.3124 34.2499 67.0624 32.6874 67.0624C32.2501 67.0624 31.8125 67.0313 31.375 66.8749C22.1875 64.1874 0.71875 54.6562 0.125 24.0936V23.6563C0.125 12.0624 8.65619 2.18754 19.7812 1.03129Z" fill="#F1F8FF"/>
</svg>
